HIERARCHY
ROOT joint_Root
{
	OFFSET 0.0 0.0 0.0
	CHANNELS 6 Xposition Yposition Zposition Zrotation Xrotation Yrotation 
	JOINT Hips
	{
		OFFSET -17.1583 93.1646 452.98
		CHANNELS 6 Xposition Yposition Zposition Zrotation Xrotation Yrotation 
		JOINT Spine
		{
			OFFSET 15.7357 0.0 0.0
			CHANNELS 6 Xposition Yposition Zposition Zrotation Xrotation Yrotation 
			JOINT Chest
			{
				OFFSET 8.98455 -0.406207 0.0
				CHANNELS 6 Xposition Yposition Zposition Zrotation Xrotation Yrotation 
				JOINT Neck
				{
					OFFSET 16.3773 0.0 0.0
					CHANNELS 6 Xposition Yposition Zposition Zrotation Xrotation Yrotation 
					JOINT Head
					{
						OFFSET 6.45672 0.0 0.0
						CHANNELS 6 Xposition Yposition Zposition Zrotation Xrotation Yrotation 
						End Site
						{
							OFFSET 0.0 0.0 0.0
						}
					}
				}
				JOINT Shoulder_L
				{
					OFFSET 12.9942 -0.242716 4.98039
					CHANNELS 6 Xposition Yposition Zposition Zrotation Xrotation Yrotation 
					JOINT UpperArm_L
					{
						OFFSET 5.34809 0.0 0.0
						CHANNELS 6 Xposition Yposition Zposition Zrotation Xrotation Yrotation 
						JOINT LowerArm_L
						{
							OFFSET 24.3286 1.87007e-05 0.0
							CHANNELS 6 Xposition Yposition Zposition Zrotation Xrotation Yrotation 
							JOINT Hand_L
							{
								OFFSET 22.2916 0.0 0.0
								CHANNELS 6 Xposition Yposition Zposition Zrotation Xrotation Yrotation 
								End Site
								{
									OFFSET 0.0 0.0 0.0
								}
							}
						}
					}
				}
				JOINT Shoulder_R
				{
					OFFSET 12.9945 -0.242716 -4.98039
					CHANNELS 6 Xposition Yposition Zposition Zrotation Xrotation Yrotation 
					JOINT UpperArm_R
					{
						OFFSET -5.34813 0.0 0.0
						CHANNELS 6 Xposition Yposition Zposition Zrotation Xrotation Yrotation 
						JOINT LowerArm_R
						{
							OFFSET -24.3289 0.000322201 0.0
							CHANNELS 6 Xposition Yposition Zposition Zrotation Xrotation Yrotation 
							JOINT Hand_R
							{
								OFFSET -22.2915 -0.000108084 0.0
								CHANNELS 6 Xposition Yposition Zposition Zrotation Xrotation Yrotation 
								End Site
								{
									OFFSET 0.0 0.0 0.0
								}
							}
						}
					}
				}
			}
		}
		JOINT UpperLeg_L
		{
			OFFSET -2.19248 -6.46944 0.0
			CHANNELS 6 Xposition Yposition Zposition Zrotation Xrotation Yrotation 
			JOINT LowerLeg_L
			{
				OFFSET 39.0811 0.0 -1.23785e-05
				CHANNELS 6 Xposition Yposition Zposition Zrotation Xrotation Yrotation 
				JOINT Foot_L
				{
					OFFSET 40.9854 0.0 -1.26872e-05
					CHANNELS 6 Xposition Yposition Zposition Zrotation Xrotation Yrotation 
					JOINT Toes_L
					{
						OFFSET 11.7543 0.0 0.0
						CHANNELS 6 Xposition Yposition Zposition Zrotation Xrotation Yrotation 
						End Site
						{
							OFFSET 0.0 0.0 0.0
						}
					}
				}
			}
		}
		JOINT UpperLeg_R
		{
			OFFSET -2.19251 6.46944 0.0
			CHANNELS 6 Xposition Yposition Zposition Zrotation Xrotation Yrotation 
			JOINT LowerLeg_R
			{
				OFFSET -39.0811 -0.00228153 -0.0401928
				CHANNELS 6 Xposition Yposition Zposition Zrotation Xrotation Yrotation 
				JOINT Foot_R
				{
					OFFSET -40.9854 0.0 0.0
					CHANNELS 6 Xposition Yposition Zposition Zrotation Xrotation Yrotation 
					JOINT Toes_R
					{
						OFFSET -11.7543 0.0 0.0
						CHANNELS 6 Xposition Yposition Zposition Zrotation Xrotation Yrotation 
						End Site
						{
							OFFSET 0.0 0.0 0.0
						}
					}
				}
			}
		}
	}
}
MOTION
Frames:	4
Frame Time:	0.0333333
0.000000 0.000000 0.000000 0.000000 0.000000 -0.000000 -0.310688 92.486800 3.862230 85.940400 -5.631080 4.538780 15.735700 0.000005 -0.000001 88.732200 86.598400 -97.191100 8.984550 -0.406207 -0.000000 -0.872532 0.484022 -16.906900 16.377300 -0.000001 -0.000001 5.901200 0.132155 -8.900620 6.456720 -0.000001 -0.000000 -3.161370 5.412660 -16.773200 12.994200 -0.242716 4.980390 -92.623300 8.765960 -73.267300 5.348090 -0.000007 -0.000001 -54.812500 4.365030 4.164040 24.328600 0.000019 0.000005 12.423500 26.902800 -25.959600 22.291600 -0.000001 0.000005 2.551670 4.792920 11.450500 12.994500 -0.242716 -4.980390 94.196600 -7.699060 -61.290300 -5.348130 -0.000001 -0.000004 -35.633600 -61.775600 -77.344800 -24.328900 0.000322 -0.000009 -0.480763 -3.249370 -8.402860 -22.291500 -0.000108 -0.000004 46.468900 5.523780 -7.524180 -2.192480 -6.469440 -0.000000 -171.759000 -8.635360 4.904980 39.081100 -0.000007 -0.000012 0.035833 -0.106984 18.517800 40.985400 -0.000006 -0.000013 -0.394505 7.421910 -71.569500 11.754300 -0.000000 0.000003 -0.003976 0.218820 -7.696220 -2.192510 6.469440 -0.000001 176.741000 7.432790 -173.256000 -39.081100 -0.002282 -0.040193 -0.027072 0.143079 11.998300 -40.985400 0.000008 0.000006 -10.182900 13.348300 -66.268600 -11.754300 -0.000006 -0.000006 -0.010547 0.275351 -5.385480
0.000000 0.000000 0.000000 0.000000 0.000000 -0.000000 -0.312370 92.491800 3.843330 85.960400 -5.654880 4.483340 15.735700 0.000005 -0.000001 88.902100 86.617600 -97.357200 8.984550 -0.406207 -0.000000 -0.908858 0.507326 -16.899200 16.377300 -0.000001 -0.000001 5.936310 0.093918 -8.801290 6.456720 -0.000001 -0.000000 -3.059330 5.397380 -16.736500 12.994200 -0.242716 4.980390 -92.623800 8.734420 -73.207300 5.348090 -0.000007 -0.000001 -54.845200 4.325280 4.266320 24.328600 0.000019 0.000005 12.387000 26.861500 -25.923100 22.291600 -0.000001 0.000005 2.485320 4.789340 11.517800 12.994500 -0.242716 -4.980390 94.188800 -7.691160 -61.310700 -5.348130 -0.000001 -0.000004 -35.823600 -61.626400 -77.516900 -24.328900 0.000322 -0.000009 -0.486548 -3.280850 -8.422400 -22.291500 -0.000108 -0.000004 46.424000 5.523750 -7.523100 -2.192480 -6.469440 -0.000000 -171.787000 -8.690650 4.847580 39.081100 -0.000007 -0.000012 0.035777 -0.106938 18.498000 40.985400 -0.000006 -0.000013 -0.399736 7.406640 -71.572000 11.754300 -0.000000 0.000003 -0.004249 0.221635 -7.581570 -2.192510 6.469440 -0.000001 176.714000 7.450510 -173.295000 -39.081100 -0.002282 -0.040193 -0.026738 0.142175 11.943300 -40.985400 0.000008 0.000006 -10.268700 13.404600 -66.253400 -11.754300 -0.000006 -0.000006 -0.010863 0.277647 -5.291500
0.000000 0.000000 0.000000 0.000000 0.000000 -0.000000 -0.315494 92.488300 3.833210 85.962500 -5.707410 4.439070 15.735700 0.000005 -0.000001 89.233900 86.628800 -97.685700 8.984550 -0.406207 -0.000000 -0.927618 0.547922 -16.892100 16.377300 -0.000001 -0.000001 6.007720 0.050026 -8.774450 6.456720 -0.000001 -0.000000 -3.065860 5.316610 -16.612200 12.994200 -0.242716 4.980390 -92.625800 8.722560 -73.174100 5.348090 -0.000007 -0.000001 -54.833900 4.231050 4.296050 24.328600 0.000019 0.000005 12.413200 26.880900 -25.957200 22.291600 -0.000001 0.000005 2.535860 4.794610 11.418800 12.994500 -0.242716 -4.980390 94.173600 -7.657470 -61.293600 -5.348130 -0.000001 -0.000004 -36.019400 -61.445200 -77.729200 -24.328900 0.000322 -0.000009 -0.489551 -3.302410 -8.419280 -22.291500 -0.000108 -0.000004 46.286600 5.524100 -7.538060 -2.192480 -6.469440 -0.000000 -171.810000 -8.643300 4.806800 39.081100 -0.000007 -0.000012 0.037117 -0.110919 18.502100 40.985400 -0.000006 -0.000013 -0.414341 7.328050 -71.537300 11.754300 -0.000000 0.000003 -0.003934 0.218383 -7.714020 -2.192510 6.469440 -0.000001 176.736000 7.441960 -173.338000 -39.081100 -0.002282 -0.040193 -0.026422 0.141080 11.910700 -40.985400 0.000008 0.000006 -10.137600 13.393000 -66.234700 -11.754300 -0.000006 -0.000006 -0.010373 0.274073 -5.437750
0.000000 0.000000 0.000000 0.000000 0.000000 -0.000000 -0.311102 92.500100 3.824290 85.981900 -5.751310 4.463850 15.735700 0.000005 -0.000001 89.395000 86.615100 -97.838000 8.984550 -0.406207 -0.000000 -0.898959 0.563813 -16.874400 16.377300 -0.000001 -0.000001 6.098490 0.011748 -8.734930 6.456720 -0.000001 -0.000000 -3.099550 5.265360 -16.511700 12.994200 -0.242716 4.980390 -92.622700 8.707070 -73.164800 5.348090 -0.000007 -0.000001 -54.888300 4.220370 4.342320 24.328600 0.000019 0.000005 12.445200 26.747700 -26.121200 22.291600 -0.000001 0.000005 2.604860 4.788900 11.526100 12.994500 -0.242716 -4.980390 94.162900 -7.653260 -61.342100 -5.348130 -0.000001 -0.000004 -35.901400 -61.295100 -77.650300 -24.328900 0.000322 -0.000009 -0.487325 -3.282540 -8.431420 -22.291500 -0.000108 -0.000004 46.133100 5.522550 -7.471560 -2.192480 -6.469440 -0.000000 -171.845000 -8.623940 4.869650 39.081100 -0.000007 -0.000012 0.037466 -0.112492 18.420500 40.985400 -0.000006 -0.000013 -0.424414 7.263650 -71.558800 11.754300 -0.000000 0.000003 -0.004306 0.222215 -7.557950 -2.192510 6.469440 -0.000001 176.690000 7.462210 -173.317000 -39.081100 -0.002282 -0.040193 -0.026445 0.141405 11.892900 -40.985400 0.000008 0.000006 -10.245600 13.458800 -66.209600 -11.754300 -0.000006 -0.000006 -0.010879 0.277758 -5.286970
